<?xml version="1.0" standalone="no"?>
<!DOCTYPE svg PUBLIC "-//W3C//DTD SVG 1.1//EN" "http://www.w3.org/Graphics/SVG/1.1/DTD/svg11.dtd" >
<!--
2013-9-30: Created.
-->
<svg>
<metadata>
Created by iconfont
</metadata>
<defs>

<font id="mall-icon" horiz-adv-x="1024" >
  <font-face
    font-family="mall-icon"
    font-weight="500"
    font-stretch="normal"
    units-per-em="1024"
    ascent="896"
    descent="-128"
  />
    <missing-glyph />
    
    <glyph glyph-name="z044" unicode="&#58935;" d="M501.68 12.327l-403.416 403.415c-17.387 17.387-45.576 17.387-62.963 0s-17.387-45.576 0-62.963l464.586-464.586 464.586 464.586c17.387 17.387 17.387 45.576 0 62.963s-45.577 17.387-62.964 0l-399.829-403.415zM500.957 458.267l-402.693 402.693c-17.387 17.387-45.576 17.387-62.963 0-17.387-17.387-17.387-45.576 0-62.963l464.586-464.585 464.586 464.585c17.387 17.387 17.387 45.576 0 62.963-17.387 17.387-45.577 17.387-62.964 0l-400.552-402.693z"  horiz-adv-x="1024" />

    
    <glyph glyph-name="lightningbshandian" unicode="&#59065;" d="M434.897971-66.214818c-2.485611 0-4.357238 0.661056-5.599532 1.871627-8.714476 2.52552-11.821233 7.463995-9.335622 14.935154l57.877175 341.637937L225.804792 292.2299c-6.220678 0-10.577916 2.492774-13.071713 7.471159-3.727904 4.938476-3.106758 10.538007 1.871627 16.799618L602.920756 824.297958c4.978385 7.471159 10.577916 8.674567 16.799618 3.736091 6.220678-1.242294 9.335622-6.260587 9.335622-14.935154l-57.877175-341.646124L793.34269 471.452771c6.220678 0 10.577916-2.52552 13.071713-7.463995 1.242294-4.978385 1.242294-10.577916 0-16.806781L447.969685-60.615287C444.233594-64.343191 439.876356-66.214818 434.897971-66.214818z"  horiz-adv-x="1024" />

    
    <glyph glyph-name="swap" unicode="&#58949;" d="M193.9 481.4c-0.3 0-0.6 0-0.9 0.1-0.4 0-0.7 0.1-1.1 0.1-0.2 0-0.5 0.1-0.7 0.1-0.4 0.1-0.8 0.1-1.1 0.2-0.2 0-0.4 0.1-0.6 0.1-0.4 0.1-0.8 0.2-1.1 0.3-0.2 0-0.4 0.1-0.6 0.1-0.4 0.1-0.7 0.2-1.1 0.3-0.2 0.1-0.4 0.1-0.6 0.2-0.3 0.1-0.7 0.2-1 0.3-0.2 0.1-0.5 0.2-0.7 0.2l-0.9 0.3c-0.3 0.1-0.5 0.2-0.8 0.3-0.3 0.1-0.5 0.2-0.8 0.3-0.3 0.1-0.6 0.3-0.9 0.4-0.2 0.1-0.4 0.2-0.7 0.3-0.3 0.2-0.6 0.3-0.9 0.5l-0.6 0.3c-0.3 0.2-0.7 0.4-1 0.6-0.2 0.1-0.3 0.2-0.5 0.3-0.3 0.2-0.7 0.4-1 0.6-0.2 0.1-0.3 0.2-0.5 0.3-0.3 0.2-0.6 0.4-0.9 0.7-0.2 0.1-0.4 0.3-0.5 0.4-0.3 0.2-0.6 0.4-0.8 0.7-0.2 0.2-0.5 0.4-0.7 0.6-0.2 0.2-0.4 0.4-0.6 0.5-0.9 0.8-1.7 1.6-2.5 2.5-0.2 0.2-0.4 0.4-0.5 0.6-0.2 0.2-0.4 0.5-0.6 0.7-0.2 0.3-0.4 0.6-0.7 0.8-0.1 0.2-0.3 0.4-0.4 0.5-0.2 0.3-0.4 0.6-0.7 0.9-0.1 0.2-0.2 0.3-0.3 0.5-0.2 0.3-0.4 0.7-0.6 1-0.1 0.2-0.2 0.3-0.3 0.5-0.2 0.3-0.4 0.7-0.6 1l-0.3 0.6c-0.2 0.3-0.3 0.6-0.5 0.9l-0.3 0.6c-0.1 0.3-0.3 0.6-0.4 0.9-0.1 0.3-0.2 0.5-0.3 0.8-0.1 0.3-0.2 0.5-0.3 0.8l-0.3 0.9c-0.1 0.2-0.2 0.5-0.2 0.7-0.1 0.3-0.2 0.7-0.3 1-0.1 0.2-0.1 0.4-0.2 0.6-0.1 0.4-0.2 0.7-0.3 1.1 0 0.2-0.1 0.4-0.1 0.6-0.1 0.4-0.2 0.8-0.2 1.1 0 0.2-0.1 0.4-0.1 0.6-0.1 0.4-0.1 0.8-0.2 1.1 0 0.2-0.1 0.5-0.1 0.7 0 0.4-0.1 0.7-0.1 1.1 0 0.3 0 0.6-0.1 0.9 0 0.3 0 0.6-0.1 0.8-0.1 1.2-0.1 2.4 0 3.6 0 0.3 0 0.6 0.1 0.8 0 0.3 0 0.6 0.1 0.9 0 0.4 0.1 0.7 0.1 1.1 0 0.2 0.1 0.5 0.1 0.7 0.1 0.4 0.1 0.8 0.2 1.1 0 0.2 0.1 0.4 0.1 0.6 0.1 0.4 0.2 0.8 0.2 1.1 0 0.2 0.1 0.4 0.1 0.6 0.1 0.4 0.2 0.7 0.3 1.1 0.1 0.2 0.1 0.4 0.2 0.6 0.1 0.3 0.2 0.7 0.3 1 0.1 0.2 0.2 0.5 0.2 0.7l0.3 0.9c0.1 0.3 0.2 0.5 0.3 0.8 0.1 0.3 0.2 0.5 0.3 0.8 0.1 0.3 0.3 0.6 0.4 0.9l0.3 0.6c0.2 0.3 0.3 0.6 0.5 0.9l0.3 0.6c0.2 0.3 0.4 0.7 0.6 1 0.1 0.2 0.2 0.3 0.3 0.5 0.2 0.3 0.4 0.7 0.6 1 0.1 0.2 0.2 0.3 0.3 0.5 0.2 0.3 0.4 0.6 0.7 0.9 0.1 0.2 0.3 0.4 0.4 0.5 0.2 0.3 0.4 0.6 0.7 0.8 0.2 0.2 0.4 0.5 0.6 0.7l0.6 0.6c0.4 0.4 0.8 0.9 1.2 1.3L348.6 720c14.1 14.1 36.9 14.1 50.9 0 14.1-14.1 14.1-36.9 0-50.9l-116-116h544.1c19.9 0 36-16.1 36-36s-16.1-36-36-36H194.8c-0.4 0.2-0.7 0.2-0.9 0.3z m636.2-194.8c0.3 0 0.6 0 0.9-0.1 0.4 0 0.7-0.1 1.1-0.1 0.2 0 0.5-0.1 0.7-0.1 0.4-0.1 0.8-0.1 1.1-0.2 0.2 0 0.4-0.1 0.6-0.1 0.4-0.1 0.8-0.2 1.1-0.3 0.2 0 0.4-0.1 0.6-0.1 0.4-0.1 0.7-0.2 1.1-0.3 0.2-0.1 0.4-0.1 0.6-0.2 0.3-0.1 0.7-0.2 1-0.3 0.2-0.1 0.5-0.2 0.7-0.2l0.9-0.3c0.3-0.1 0.5-0.2 0.8-0.3 0.3-0.1 0.5-0.2 0.8-0.3 0.3-0.1 0.6-0.3 0.9-0.4 0.2-0.1 0.4-0.2 0.7-0.3 0.3-0.2 0.6-0.3 0.9-0.5l0.6-0.3c0.3-0.2 0.7-0.4 1-0.6 0.2-0.1 0.3-0.2 0.5-0.3 0.3-0.2 0.7-0.4 1-0.6 0.2-0.1 0.3-0.2 0.5-0.3 0.3-0.2 0.6-0.4 0.9-0.7 0.2-0.1 0.4-0.3 0.5-0.4 0.3-0.2 0.6-0.4 0.8-0.7 0.2-0.2 0.5-0.4 0.7-0.6 0.2-0.2 0.4-0.4 0.6-0.5 0.9-0.8 1.7-1.6 2.5-2.5 0.2-0.2 0.4-0.4 0.5-0.6 0.2-0.2 0.4-0.5 0.6-0.7 0.2-0.3 0.4-0.6 0.7-0.8 0.1-0.2 0.3-0.4 0.4-0.5 0.2-0.3 0.4-0.6 0.7-0.9 0.1-0.2 0.2-0.3 0.3-0.5 0.2-0.3 0.4-0.7 0.6-1 0.1-0.2 0.2-0.3 0.3-0.5 0.2-0.3 0.4-0.7 0.6-1l0.3-0.6c0.2-0.3 0.3-0.6 0.5-0.9l0.3-0.6c0.1-0.3 0.3-0.6 0.4-0.9 0.1-0.3 0.2-0.5 0.3-0.8 0.1-0.3 0.2-0.5 0.3-0.8l0.3-0.9c0.1-0.2 0.2-0.5 0.2-0.7 0.1-0.3 0.2-0.7 0.3-1 0.1-0.2 0.1-0.4 0.2-0.6 0.1-0.4 0.2-0.7 0.3-1.1 0-0.2 0.1-0.4 0.1-0.6 0.1-0.4 0.2-0.8 0.2-1.1 0-0.2 0.1-0.4 0.1-0.6 0.1-0.4 0.1-0.8 0.2-1.1 0-0.2 0.1-0.5 0.1-0.7 0-0.4 0.1-0.7 0.1-1.1 0-0.3 0-0.6 0.1-0.9 0-0.3 0-0.6 0.1-0.8 0.1-1.2 0.1-2.4 0-3.6 0-0.3 0-0.6-0.1-0.8 0-0.3 0-0.6-0.1-0.9 0-0.4-0.1-0.7-0.1-1.1 0-0.2-0.1-0.5-0.1-0.7-0.1-0.4-0.1-0.8-0.2-1.1 0-0.2-0.1-0.4-0.1-0.6-0.1-0.4-0.2-0.8-0.2-1.1 0-0.2-0.1-0.4-0.1-0.6-0.1-0.4-0.2-0.7-0.3-1.1-0.1-0.2-0.1-0.4-0.2-0.6-0.1-0.3-0.2-0.7-0.3-1-0.1-0.2-0.2-0.5-0.2-0.7l-0.3-0.9c-0.1-0.3-0.2-0.5-0.3-0.8-0.1-0.3-0.2-0.5-0.3-0.8-0.1-0.3-0.3-0.6-0.4-0.9l-0.3-0.6c-0.2-0.3-0.3-0.6-0.5-0.9l-0.3-0.6c-0.2-0.3-0.4-0.7-0.6-1-0.1-0.2-0.2-0.3-0.3-0.5-0.2-0.3-0.4-0.7-0.6-1-0.1-0.2-0.2-0.3-0.3-0.5-0.2-0.3-0.4-0.6-0.7-0.9-0.1-0.2-0.3-0.4-0.4-0.5-0.2-0.3-0.4-0.6-0.7-0.8-0.2-0.2-0.4-0.5-0.6-0.7l-0.6-0.6c-0.4-0.4-0.8-0.9-1.2-1.3L675.5 47.8c-14.1-14.1-36.9-14.1-50.9 0-14.1 14.1-14.1 36.9 0 50.9l116 116H196.5c-19.9 0-36 16.1-36 36s16.1 36 36 36h632.8c0.3 0 0.6 0 0.8-0.1z"  horiz-adv-x="1024" />

    
    <glyph glyph-name="dianhua" unicode="&#58955;" d="M115.2 780.8c19.2 32 44.8 64 76.8 83.2 32 19.2 70.4 32 115.2 32H320c70.4 0 134.4-76.8 153.6-198.4 12.8-57.6 6.4-121.6-19.2-160-12.8-32-38.4-51.2-70.4-51.2l-12.8-12.8v-12.8c19.2-38.4 38.4-76.8 64-108.8 19.2-32 44.8-64 70.4-96 6.4-6.4 12.8-6.4 19.2-6.4h6.4c12.8 19.2 32 38.4 57.6 44.8 44.8 6.4 115.2-12.8 179.2-57.6 96-70.4 140.8-166.4 108.8-230.4l-6.4-6.4c-19.2-38.4-44.8-70.4-83.2-89.6-160-96-409.6 38.4-576 307.2-128 198.4-166.4 428.8-96 563.2z m288-217.6c12.8 32 19.2 76.8 12.8 128-12.8 83.2-64 147.2-96 147.2h-12.8c-32 0-64-6.4-89.6-25.6-19.2-12.8-38.4-32-51.2-57.6-64-115.2-25.6-326.4 89.6-512 147.2-230.4 371.2-364.8 499.2-288 25.6 12.8 44.8 38.4 57.6 70.4 0 0 0 6.4 6.4 6.4v6.4c19.2 32-19.2 102.4-89.6 153.6-44.8 32-102.4 51.2-134.4 44.8-12.8-6.4-19.2-12.8-19.2-19.2 0 0-12.8-25.6-44.8-32-19.2-6.4-44.8 6.4-64 25.6l-6.4 6.4c-25.6 32-51.2 64-76.8 102.4-25.6 38.4-44.8 83.2-64 121.6V448c-6.4 19.2-6.4 38.4 0 57.6 12.8 25.6 44.8 38.4 44.8 38.4h6.4c19.2 0 25.6 12.8 32 19.2z m217.6-12.8c6.4 12.8 19.2 19.2 32 12.8 32-6.4 51.2-25.6 64-51.2 12.8-25.6 12.8-51.2 6.4-76.8-6.4-12.8-19.2-25.6-38.4-19.2-12.8 6.4-25.6 19.2-19.2 38.4 6.4 12.8 0 25.6 0 32-6.4 12.8-19.2 19.2-25.6 25.6-19.2 0-25.6 19.2-19.2 38.4zM672 640c6.4 12.8 19.2 19.2 32 12.8 96-32 147.2-134.4 115.2-230.4-6.4-12.8-19.2-25.6-38.4-19.2-12.8 6.4-25.6 19.2-19.2 38.4 19.2 64-12.8 134.4-76.8 153.6-12.8 6.4-19.2 25.6-12.8 44.8 0-6.4 0 0 0 0z m25.6 115.2c6.4 12.8 19.2 19.2 32 12.8 76.8-25.6 140.8-83.2 179.2-153.6 38.4-76.8 44.8-160 19.2-236.8-6.4-12.8-19.2-25.6-38.4-19.2-12.8 6.4-25.6 19.2-19.2 38.4 19.2 64 19.2 134.4-12.8 192-32 57.6-83.2 102.4-147.2 128-12.8 0-19.2 19.2-12.8 38.4 0-6.4 0 0 0 0z m0 0"  horiz-adv-x="1024" />

    
    <glyph glyph-name="main-quote" unicode="&#59072;" d="M720.45122583 805.87484921C838.72685334 805.87484921 933.87469842 711.46528455 933.87469842 594.57581799c0-53.93971307-20.71706836-108.33143472-62.19640585-149.25329489L718.61305713 294.27625945c-41.49440469-39.97264224-95.73545681-59.96649655-149.93130816-59.96649654-75.83200405 0-145.14001529 39.71650396-183.31968961 102.68132547V337.29242743a213.80014682 213.80014682 0 0 0-21.69642069 47.61158973 32.81583608 32.81583608 0 0 0 22.14843009 40.71092348c17.98994888 5.07756555 36.34150478-4.64062336 41.43413672-22.08816211 3.37499918-11.40568808 8.49776468-22.60043866 14.61495053-33.02677358 26.44251279-43.69418042 74.98825405-71.16124714 126.81859295-71.16124714a149.31356287 149.31356287 0 0 1 103.6305434 41.43413672L825.09125513 491.57808627a144.46200201 144.46200201 0 0 1 42.89563202 102.99773172c0 80.89450241-65.60153943 145.54682309-147.53566132 145.54682227-37.74273211 0-75.83200405-13.99720523-104.20308792-42.32308749h-0.45200858l-140.42405676-138.51055289c-12.74664743-12.59597791-33.94585877-12.59597791-47.11438119 0a32.87610407 32.87610407 0 0 0 0 46.22542959l140.42405758 138.81189276A217.49155142 217.49155142 0 0 0 720.45122583 805.87484921z m-416.90275323-843.74969842C185.2728451-37.87484920999998 90.125 56.53471545000002 90.125 173.42418200999998c0 53.93971307 20.71706836 108.33143472 62.19640667 149.25329489l153.06523545 151.04626364c41.49440469 39.97264224 95.73545681 59.96649655 149.93130816 59.96649655 75.83200405 0 145.14001529-39.71650396 183.31968879-102.68132547v-0.28627185a213.80014682 213.80014682 0 0 0 21.69642068-47.61159055 32.81583608 32.81583608 0 0 0-22.14842926-40.71092266c-17.98994888-5.07756555-36.34150478 4.64062336-41.43413754 22.08816128a150.27784799 150.27784799 0 0 1-14.61494971 33.02677442c-26.44251279 43.69418042-74.98825405 71.16124714-126.81859295 71.16124713a149.31356287 149.31356287 0 0 1-103.6305434-41.43413755L198.9084433 276.42191373a144.46200201 144.46200201 0 0 1-42.89563202-102.99773172c0-80.89450241 65.60153943-145.54682309 147.53566131-145.54682227 37.74273211 0 75.83200405 13.99720523 104.20308793 42.32308749h0.45200857l140.42405759 138.51055289c12.74664743 12.59597791 33.94585877 12.59597791 47.11438037 0 12.67131226-12.73158023 12.67131226-33.44864858 0-46.22542959l-140.42405677-138.81189276A217.49155142 217.49155142 0 0 0 303.5484726-37.87484920999998z"  horiz-adv-x="1024" />

    
    <glyph glyph-name="icon_function_jiaji" unicode="&#59542;" d="M452.888671 46.07854899999995l51.028908 253.551665c0 11.719013-3.982189 22.015817-9.841696 25.599787-4.551073 6.143949-13.766996 13.027447-30.15086 13.027447H185.91134l374.951542 393.781607-54.954209-265.270678c0-11.719013 4.551073-22.072705 9.841696-25.542898 5.233734-6.257726 14.392769-13.084335 30.093972-13.084336h242.742866l-335.641648-382.005705z m455.39176 433.831052l-2.616867 4.835515c-4.551073 7.509271-15.07543 17.23719-34.07616 17.23719H592.89106l74.523823 353.675275c0 17.862962-9.727919 31.800624-25.429121 35.896589a33.791718 33.791718 0 0 1-43.860968-9.045258L68.721206 326.53843400000005a35.839701 35.839701 0 0 1-11.775902-25.599786c0-5.518176 1.308434-14.506546 6.542167-19.342061 4.551073-7.509271 15.07543-17.294078 34.019272-17.294078h319.371561L344.231799-80.21373200000005a38.342792 38.342792 0 0 1 0-27.021997c4.551073-8.24882 12.401674-14.506546 23.551803-17.237189 4.551073-2.787532 9.159035-3.470193 15.07543-3.470194 11.093241 0 20.934937 3.413305 32.028178 12.458563l488.842148 556.027367 4.551073 9.045258a59.732836 59.732836 0 0 1 0 30.378413z"  horiz-adv-x="1024" />

    
    <glyph glyph-name="tianwuliyoutuihuo" unicode="&#58907;" d="M866.88 726.08L527.04 841.92A49.152 49.152 0 0 1 512 843.968a49.152 49.152 0 0 1-15.104-2.048l-339.84-115.84a24 24 0 0 1-15.04-21.12v-482.432c0-8.832 5.696-20.48 12.608-25.92l344.704-268.608a20.672 20.672 0 0 1 12.544-4.096 20.48 20.48 0 0 1 12.608 4.096l344.704 268.608a37.184 37.184 0 0 1 12.608 25.92V704.896a23.552 23.552 0 0 1-14.912 21.184z m-56.896-484.352L512 9.47199999999998l-297.984 232.256v427.52L512 770.944l297.984-101.568v-427.584zM350.72 620.1600000000001l-32.256-30.464c32.256-25.984 56.896-50.176 73.92-72.576l33.6 33.152A576.576 576.576 0 0 1 350.72 620.2239999999999z m254.464-403.648h103.04l11.648 46.144c-12.544-0.896-30.016-1.792-53.312-2.688-23.296 0-45.696-0.448-68.096-0.448-34.496 0-64.96 0.448-90.944 0.896-26.432 0.896-46.144 4.48-59.136 11.2a124.8 124.8 0 0 0-30.912 26.432l-4.928 4.928v170.24H309.952v-43.008h59.136v-122.752c-17.92-9.856-37.632-32.704-60.032-68.544l34.496-31.808c22.4 40.32 37.632 60.032 46.592 60.032 4.928 0 10.304-3.584 16.576-11.2 13.44-15.232 29.12-25.536 47.04-30.912 18.816-4.48 42.56-7.168 71.232-7.616 28.672-0.448 55.552-0.896 80.192-0.896z m-43.008 208.768l-26.432-31.808c60.48-34.944 110.208-72.128 149.184-112l29.12 34.944a625.152 625.152 0 0 1-55.104 46.144c12.096 10.752 24.192 23.296 35.84 36.736l-33.6 25.984c-10.304-13.44-22.4-25.984-35.84-38.528-19.712 13.44-40.768 25.984-63.168 38.528z m-55.104 76.608h132.608v-28.224H507.072z m132.608 38.528H507.072v28.224h132.608zM507.072 432.512h178.304V609.9200000000001H461.824v-271.488c0-8.064-5.376-14.336-16.128-18.368l10.304-39.424c54.656 8.96 100.352 18.368 136.192 27.776l-10.752 42.112c-24.192-7.168-49.28-13.44-74.368-17.92z"  horiz-adv-x="1024" />

    
    <glyph glyph-name="calendar" unicode="&#58908;" d="M880 712h-168v64A8 8 0 0 1 704 784h-56a8 8 0 0 1-8-8v-64H384v64a8 8 0 0 1-8 8H320a8 8 0 0 1-8-8v-64H144a32 32 0 0 1-32-32V16a32 32 0 0 1 32-32h736a32 32 0 0 1 32 32V680a32 32 0 0 1-32 32z m-40-656H184V436.032h656v-380.032z m-656 448V640h128v-48c0-4.416 3.584-8 8-8h56A8 8 0 0 1 384 592V640h256v-48c0-4.416 3.584-8 8-8H704a8 8 0 0 1 8 8V640h128v-136H184z"  horiz-adv-x="1024" />

    
    <glyph glyph-name="buzhichihuodaofukuan" unicode="&#58909;" d="M866.88 726.08L527.04 841.92A49.152 49.152 0 0 1 512 843.968a49.152 49.152 0 0 1-15.104-2.048l-339.84-115.84a24 24 0 0 1-15.04-21.12v-482.432c0-8.832 5.696-20.48 12.608-25.92l344.704-268.608a20.672 20.672 0 0 1 12.544-4.096 20.48 20.48 0 0 1 12.608 4.096l344.704 268.608a37.184 37.184 0 0 1 12.608 25.92V704.896a23.552 23.552 0 0 1-14.912 21.184z m-56.896-484.352L512 9.47199999999998l-297.984 232.256v427.52L512 770.944l297.984-101.568v-427.584zM696 448h-368A8 8 0 0 1 320 440v-48c0-4.416 3.584-8 8-8h368A8 8 0 0 1 704 392v48A8 8 0 0 1 696 448z"  horiz-adv-x="1024" />

    
    <glyph glyph-name="close" unicode="&#58910;" d="M563.84 384l262.4 312.96a7.936 7.936 0 0 1-6.016 13.056h-79.808a16.32 16.32 0 0 1-12.288-5.76L511.616 446.272 295.04 704.3199999999999a16 16 0 0 1-12.288 5.696H203.008a7.936 7.936 0 0 1-6.08-13.12L459.392 384l-262.464-312.96a7.936 7.936 0 0 1 6.08-13.056h79.808a16.32 16.32 0 0 1 12.288 5.76l216.512 258.048 216.512-258.112a16 16 0 0 1 12.288-5.696h79.808a7.936 7.936 0 0 1 6.08 13.12L563.776 384z"  horiz-adv-x="1024" />

    
    <glyph glyph-name="zhichihuodaofukuan" unicode="&#58911;" d="M866.88 726.08L527.04 841.92A49.152 49.152 0 0 1 512 843.968a49.152 49.152 0 0 1-15.104-2.048l-339.84-115.84a24 24 0 0 1-15.04-21.12v-482.432c0-8.832 5.696-20.48 12.608-25.92l344.704-268.608a20.672 20.672 0 0 1 12.544-4.096 20.48 20.48 0 0 1 12.608 4.096l344.704 268.608a37.184 37.184 0 0 1 12.608 25.92V704.896a23.552 23.552 0 0 1-14.912 21.184z m-56.896-484.352L512 9.47199999999998l-297.984 232.256v427.52L512 770.944l297.984-101.568v-427.584z m-158.208 209.6c17.024 0 30.016 3.136 38.528 8.512 8.96 5.376 15.232 22.848 18.368 53.312l-42.112 13.44c-1.344-17.024-4.032-27.328-8.064-30.912a22.656 22.656 0 0 0-15.68-4.928H564.864c-9.408 0-13.888 4.48-13.888 12.544v12.096c54.208 20.608 101.696 44.352 142.016 71.68l-29.568 30.912c-29.568-21.056-66.752-40.32-112.448-58.24v61.824h-45.696v-77.952c-21.952-7.168-45.248-13.888-70.336-20.16l24.64-37.184 45.696 13.44v-5.376c0-28.672 15.68-43.008 47.488-43.008z m12.992-16.128h-295.68v-146.944h47.04V393.088h201.152v-99.008h47.488zM549.184 299.00800000000004l-23.744-34.944c52.864-14.784 103.936-34.944 153.664-60.48l26.432 40.32a900.352 900.352 0 0 1-156.352 55.104zM494.08 380.096c-3.136-45.696-14.336-77.504-34.048-96.32-22.4-18.816-68.544-30.016-139.328-33.152l18.368-42.56c84.672 7.616 137.984 23.744 159.936 48.832 20.608 19.264 34.048 59.136 40.32 119.168zM375.808 520.3199999999999v-73.024h45.696V555.264c17.92 16.128 33.152 33.6 44.8 51.52l-38.528 18.368c-25.536-34.048-64.512-64.064-117.376-89.152l14.336-45.696c18.368 9.856 35.392 19.712 51.072 30.016z"  horiz-adv-x="1024" />

    
    <glyph glyph-name="check" unicode="&#58912;" d="M699.008 542.976h-46.912c-10.24 0-19.84-4.864-25.92-13.248L468.992 311.67999999999995 397.824 410.496a32 32 0 0 1-25.92 13.312h-46.912a8 8 0 0 1-6.464-12.736l124.544-172.8c12.736-17.664 39.04-17.664 51.712 0l210.56 292.032a7.936 7.936 0 0 1-6.4 12.672zM512 832a448 448 0 1 1 0-896A448 448 0 0 1 512 832z m0-820.032A372.032 372.032 0 0 0 512 756.032a372.032 372.032 0 0 0 0-744.064z"  horiz-adv-x="1024" />

    
    <glyph glyph-name="delete" unicode="&#58913;" d="M762.688-64h-448a112 112 0 0 0-112 112V608h-37.376a37.312 37.312 0 0 0 0 74.688H352V720C352 781.824 402.112 832 464 832h149.312c61.888 0 112-50.176 112-112v-37.312h186.688a37.312 37.312 0 0 0 0-74.688h-37.312v-560a112 112 0 0 0-112-112zM277.312 608v-560c0-20.608 16.704-37.312 37.376-37.312h448a37.312 37.312 0 0 1 37.312 37.312V608H277.312z m149.376 74.688h224V720a37.312 37.312 0 0 1-37.376 37.312H464a37.312 37.312 0 0 1-37.312-37.312v-37.312zM632 160a37.312 37.312 0 0 0-37.312 37.312v224a37.312 37.312 0 0 0 74.624 0v-224a37.312 37.312 0 0 0-37.312-37.312z m-186.688 0a37.312 37.312 0 0 0-37.312 37.312v224a37.312 37.312 0 0 0 74.688 0v-224a37.312 37.312 0 0 0-37.376-37.312z"  horiz-adv-x="1024" />

    
    <glyph glyph-name="down" unicode="&#58914;" d="M884.032 640H808.96a16 16 0 0 1-12.928-6.592L512 241.79200000000003 227.84 633.408A16 16 0 0 1 215.04 640H139.968a8 8 0 0 1-6.528-12.672l352.64-486.144c12.8-17.6 38.976-17.6 51.648 0l352.64 486.144a7.936 7.936 0 0 1-6.4 12.672z"  horiz-adv-x="1024" />

    
    <glyph glyph-name="left" unicode="&#58916;" d="M724.032 677.76V754.944a8 8 0 0 1-12.928 6.272L260.288 409.216a31.872 31.872 0 0 1 0-50.304l450.816-352.128a7.936 7.936 0 0 1 12.864 6.336v77.248a16.192 16.192 0 0 1-6.08 12.608L357.888 384l360 281.088a16.192 16.192 0 0 1 6.08 12.608z"  horiz-adv-x="1024" />

    
    <glyph glyph-name="detail" unicode="&#58917;" d="M880 784H144a32 32 0 0 1-32-32v-736a32 32 0 0 1 32-32h736a32 32 0 0 1 32 32V752a32 32 0 0 1-32 32z m-40-728H184V712h656v-656zM491.968 496h184a8 8 0 0 1 8.064 8v48a8 8 0 0 1-8.064 8H492.032a8 8 0 0 1-8-8v-48c0-4.416 3.584-8 8-8z m0-144h184a8 8 0 0 1 8.064 8v48a8 8 0 0 1-8.064 8H492.032a8 8 0 0 1-8-8v-48c0-4.416 3.584-8 8-8z m0-144h184a8 8 0 0 1 8.064 8v48a8 8 0 0 1-8.064 8H492.032a8 8 0 0 1-8-8v-48c0-4.416 3.584-8 8-8z m-152 320a40 40 0 1 1 80 0 40 40 0 0 1-80 0z m0-144a40 40 0 1 1 80 0 40 40 0 0 1-80 0z m0-144a40 40 0 1 1 80 0 40 40 0 0 1-80 0z"  horiz-adv-x="1024" />

    
    <glyph glyph-name="pull" unicode="&#58919;" d="M890.496 140.67200000000003l-352.64 486.144a31.936 31.936 0 0 1-51.648 0l-352.704-486.144a8 8 0 0 1 6.528-12.672h74.944a16 16 0 0 1 12.928 6.592L512 526.2080000000001l284.16-391.616a16 16 0 0 1 12.8-6.592h75.008c6.528 0 10.304 7.424 6.528 12.672z"  horiz-adv-x="1024" />

    
    <glyph glyph-name="right" unicode="&#58920;" d="M765.696 409.216L314.88 761.28a7.936 7.936 0 0 1-12.864-6.272v-77.312c0-4.864 2.304-9.6 6.08-12.608L668.16 384l-360-281.088a15.872 15.872 0 0 1-6.08-12.608v-77.312c0-6.72 7.68-10.368 12.864-6.272l450.816 352.064a32 32 0 0 1 0 50.432z"  horiz-adv-x="1024" />

    
    <glyph glyph-name="prise_rise" unicode="&#58921;" d="M512 867.584L910.250667 298.666667h-170.666667v-113.749334H284.416V298.666667h-170.666667L512 867.584z m227.584-853.333333H284.416V128h455.168v-113.749333z m0-113.834667H284.416V-42.666667h455.168v-56.917333z"  horiz-adv-x="1024" />

    
    <glyph glyph-name="minus" unicode="&#58922;" d="M176 422.016h672c5.312 0 8-2.688 8-8v-60.032c0-5.312-2.688-8-8-8H176c-5.312 0-8 2.688-8 8V414.08c0 5.312 2.688 8 8 8z"  horiz-adv-x="1024" />

    
    <glyph glyph-name="prise_down" unicode="&#58923;" d="M512-99.584L910.250667 469.333333h-170.666667V583.082667H284.416V469.333333h-170.666667L512-99.584z m227.584 853.333333H284.416V640h455.168V753.749333z m0 113.834667H284.416V810.666667h455.168V867.584z"  horiz-adv-x="1024" />

    
    <glyph glyph-name="query" unicode="&#58924;" d="M920.96 28.992l-145.92 145.984a379.776 379.776 0 0 1-26.048 509.056c-147.968 148.096-388.416 148.096-536.96 0-148.16-148.608-148.16-389.056 0-537.024a379.776 379.776 0 0 1 508.992-25.984l145.92-146.048c3.2-2.752 8.32-2.752 11.072 0l43.008 43.008c2.752 2.688 2.752 7.808 0 11.008z m-224.96 171.008a304.128 304.128 0 0 0-430.016 430.016 304.128 304.128 0 0 0 430.016-430.016z"  horiz-adv-x="1024" />

    
    <glyph glyph-name="warning" unicode="&#58925;" d="M512 832a448 448 0 1 1 0-896A448 448 0 0 1 512 832z m0-820.032A372.032 372.032 0 0 0 512 756.032a372.032 372.032 0 0 0 0-744.064zM464 208a48 48 0 1 1 96 0 48 48 0 0 1-96 0zM488 320h48a8 8 0 0 1 8 8v272a8 8 0 0 1-8 8h-48a8 8 0 0 1-8-8v-272c0-4.416 3.584-8 8-8z"  horiz-adv-x="1024" />

    
    <glyph glyph-name="checkbox_unchecked" unicode="&#58926;" d="M880 784H144a32 32 0 0 1-32-32v-736a32 32 0 0 1 32-32h736a32 32 0 0 1 32 32V752a32 32 0 0 1-32 32z m-40-728H184V712h656v-656z"  horiz-adv-x="1024" />

    
    <glyph glyph-name="plus" unicode="&#58927;" d="M481.984 744h60.032c5.312 0 8-2.688 8-8v-704c0-5.312-2.688-8-8-8H481.92c-5.312 0-8 2.688-8 8v704c0 5.312 2.688 8 8 8zM176 422.016h672c5.312 0 8-2.688 8-8v-60.032c0-5.312-2.688-8-8-8H176c-5.312 0-8 2.688-8 8V414.08c0 5.312 2.688 8 8 8z"  horiz-adv-x="1024" />

    
    <glyph glyph-name="question" unicode="&#58928;" d="M512 832a448 448 0 1 1 0-896A448 448 0 0 1 512 832z m0-708.032a40 40 0 1 0 0 80 40 40 0 0 0 0-80z m62.912 219.52a48.32 48.32 0 0 1-30.912-44.8v-22.656a8 8 0 0 0-8-8.064h-48a8 8 0 0 0-8 8.064v21.44a111.744 111.744 0 0 0 72 105.792c33.984 13.12 56 41.6 56 72.704 0 44.16-43.072 80-96 80s-96-35.84-96-80v-7.552a8 8 0 0 0-8-8h-48a8 8 0 0 0-8 8v7.616c0 39.296 17.216 75.968 48.384 103.296A168.576 168.576 0 0 0 512 620.0319999999999c41.984 0 81.6-14.528 111.616-40.704 31.168-27.328 48.384-64 48.384-103.296 0-57.856-38.08-109.824-97.088-132.48z"  horiz-adv-x="1024" />

    
    <glyph glyph-name="wrong" unicode="&#58929;" d="M512 832a448 448 0 1 1 0-896A448 448 0 0 1 512 832z m165.376-618.24l-65.92 0.32L512 332.60799999999995l-99.328-118.4-66.048-0.32a7.936 7.936 0 0 0-8 8c0 1.92 0.64 3.712 1.92 5.184L470.528 382.08000000000004 340.48 536.96a8 8 0 0 0 6.08 13.184l66.112-0.256L512 431.424l99.328 118.4 65.92 0.256c4.48 0 8.064-3.456 8.064-8a8.32 8.32 0 0 0-1.92-5.12l-129.92-154.944 130.048-155.008a8 8 0 0 0-6.08-13.184z"  horiz-adv-x="1024" />

    
    <glyph glyph-name="upload" unicode="&#58930;" d="M400 578.304h73.92v-338.304c0-4.416 3.584-8 8-8h59.968a8 8 0 0 1 8 8V578.304H624c6.72 0 10.368 7.68 6.272 12.928l-112 141.76a8 8 0 0 1-12.544 0L393.728 591.36a8.064 8.064 0 0 1 6.272-12.992z m478.016-308.288h-60.032a8 8 0 0 1-8-8v-153.984H214.016V262.01599999999996a8 8 0 0 1-8 8H145.92a8 8 0 0 1-8-8V64a32 32 0 0 1 32-32h684.032a32 32 0 0 1 32 32V262.01599999999996a8 8 0 0 1-8 8z"  horiz-adv-x="1024" />

    
    <glyph glyph-name="shopping_cart" unicode="&#58931;" d="M325.568 95.03999999999996a35.072 35.072 0 0 0-34.304 27.776L155.136 760.96l-55.04-1.6a35.136 35.136 0 1 0-2.048 70.208L182.4 832a35.072 35.072 0 0 0 35.328-27.776l136.256-638.912 436.48 0.384a35.072 35.072 0 1 0 0-70.208l-464.832-0.448z m-29.056 135.68a35.072 35.072 0 0 0-34.304 27.904L182.912 637.696a35.072 35.072 0 0 0 34.688 42.304l691.648-6.528a35.072 35.072 0 0 0 34.432-39.936l-49.472-356.8a35.072 35.072 0 0 0-33.856-30.272l-562.88-15.744h-0.96z m-35.904 378.624l64.32-307.584 503.808 14.08 39.936 287.744-608.064 5.76z m50.304-658.176a107.072 107.072 0 1 0 0 214.08 107.072 107.072 0 0 0 0-214.08z m0 143.872a36.864 36.864 0 1 1 0-73.664 36.864 36.864 0 0 1 0 73.664z m476.032-144.128a107.072 107.072 0 1 0 0 214.08c29.76 0 55.424-8.704 74.112-25.152 15.04-13.248 32.96-38.208 32.96-81.92 0-59.072-48-106.944-107.072-107.008z m0 143.872a36.864 36.864 0 1 1 36.864-36.8c0 22.72-6.144 36.8-36.864 36.8z"  horiz-adv-x="1024" />

    
    <glyph glyph-name="checkbox_filled" unicode="&#58932;" d="M880 784H144a32 32 0 0 1-32-32v-736a32 32 0 0 1 32-32h736a32 32 0 0 1 32 32V752a32 32 0 0 1-32 32z m-184.512-253.696l-210.56-292.032a31.808 31.808 0 0 0-51.712 0l-124.736 172.8a8 8 0 0 0 6.528 12.736h46.912c10.24 0 19.84-4.928 25.856-13.312L459.008 311.67999999999995l157.184 218.048a32 32 0 0 0 25.92 13.248h46.912c6.464 0 10.24-7.36 6.464-12.672z"  horiz-adv-x="1024" />

    
    <glyph glyph-name="plus-circle" unicode="&#58915;" d="M696 416H544V568A8 8 0 0 1 536 576h-48a8 8 0 0 1-8-8V416H328A8 8 0 0 1 320 408v-48c0-4.416 3.584-8 8-8H480v-152c0-4.416 3.584-8 8-8h48a8 8 0 0 1 8 8V352h152A8 8 0 0 1 704 360v48a8 8 0 0 1-8 8zM512 832a448 448 0 1 1 0-896A448 448 0 0 1 512 832z m0-820.032A372.032 372.032 0 0 0 512 756.032a372.032 372.032 0 0 0 0-744.064z"  horiz-adv-x="1024" />

    
    <glyph glyph-name="minus-circle" unicode="&#58933;" d="M696 416h-368A8 8 0 0 1 320 408v-48c0-4.416 3.584-8 8-8h368A8 8 0 0 1 704 360v48a8 8 0 0 1-8 8zM512 832a448 448 0 1 1 0-896A448 448 0 0 1 512 832z m0-820.032A372.032 372.032 0 0 0 512 756.032a372.032 372.032 0 0 0 0-744.064z"  horiz-adv-x="1024" />

    
    <glyph glyph-name="collection1" unicode="&#58934;" d="M508.8 86.78399999999999l-238.4-125.312a32 32 0 0 0-46.4 33.728l45.504 265.408a8 8 0 0 1-2.304 7.104L74.368 455.68a32 32 0 0 0 17.728 54.592l266.496 38.72a8 8 0 0 1 6.016 4.352L483.84 794.88a32 32 0 0 0 57.408 0l119.168-241.536a8 8 0 0 1 6.08-4.352l266.496-38.72a32 32 0 0 0 17.728-54.592L757.76 267.712a8 8 0 0 1-2.304-7.04l45.44-265.472a32 32 0 0 0-46.4-33.728l-238.336 125.312a8 8 0 0 1-7.424 0z"  horiz-adv-x="1024" />

    
    <glyph glyph-name="collection" unicode="&#58918;" d="M510.208 71.168L260.48-60.15999999999997a33.536 33.536 0 0 0-48.64 35.392l47.68 278.144a8.384 8.384 0 0 1-2.432 7.424L54.912 457.856a33.536 33.536 0 0 0 18.56 57.152l279.36 40.576a8.384 8.384 0 0 1 6.336 4.608l124.864 253.12a33.536 33.536 0 0 0 60.16 0l124.928-253.12c1.216-2.496 3.584-4.16 6.272-4.608l279.36-40.576a33.536 33.536 0 0 0 18.56-57.216L771.2 260.79999999999995a8.384 8.384 0 0 1-2.432-7.424l47.744-278.144a33.536 33.536 0 0 0-48.64-35.392L518.016 71.168a8.384 8.384 0 0 1-7.808 0z m0 74.432a8.384 8.384 0 0 0 7.808 0l207.488-109.056a8.384 8.384 0 0 1 12.16 8.832l-39.68 231.04a8.384 8.384 0 0 0 2.432 7.424l167.872 163.584a8.384 8.384 0 0 1-4.672 14.272L631.68 495.424a8.384 8.384 0 0 0-6.336 4.608l-103.68 210.176a8.384 8.384 0 0 1-15.04 0L402.88 500.032a8.384 8.384 0 0 0-6.336-4.608l-231.936-33.728A8.384 8.384 0 0 1 160 447.424L327.808 283.84000000000003c1.92-1.92 2.88-4.736 2.432-7.424l-39.68-231.04a8.384 8.384 0 0 1 12.16-8.832L510.208 145.60000000000002z"  horiz-adv-x="1024" />

    
    <glyph glyph-name="download" unicode="&#58936;" d="M624 389.76H550.08V728.064a8 8 0 0 1-8 8h-59.968a8 8 0 0 1-8-8V389.76H400a8 8 0 0 1-6.272-12.864l112-141.824c3.2-4.096 9.344-4.096 12.544 0l112 141.696a8.064 8.064 0 0 1-6.272 12.992z m254.016-119.744h-60.032a8 8 0 0 1-8-8v-153.984H214.016V262.01599999999996a8 8 0 0 1-8 8H145.92a8 8 0 0 1-8-8V64a32 32 0 0 1 32-32h684.032a32 32 0 0 1 32 32V262.01599999999996a8 8 0 0 1-8 8z"  horiz-adv-x="1024" />

    
    <glyph glyph-name="attachment" unicode="&#58937;" d="M831.04 658.432V15.360000000000014H295.168V658.432h535.872m0 53.568H295.168a53.632 53.632 0 0 1-53.568-53.568V15.360000000000014c0-29.568 24-53.568 53.568-53.568h535.872a53.632 53.632 0 0 1 53.568 53.568V658.432a53.632 53.632 0 0 1-53.568 53.568zM723.84 765.6320000000001v-53.632H295.232l-53.568-53.568v-535.872h-53.632V765.6320000000001h535.936m0 53.568H187.968a53.632 53.632 0 0 1-53.568-53.568v-643.072c0-29.568 24-53.568 53.568-53.568h107.2v589.44h482.304V765.6320000000001a53.632 53.632 0 0 1-53.568 53.568zM697.92 470.848H430.08a26.752 26.752 0 1 0 0 53.632h267.904a26.752 26.752 0 1 0 0-53.632z m0-160.768H430.08a26.752 26.752 0 1 0 0 53.632h267.904a26.752 26.752 0 1 0 0-53.632z m0-160.768H430.08a26.752 26.752 0 1 0 0 53.632h267.904a26.752 26.752 0 1 0 0-53.632z"  horiz-adv-x="1024" />

    
    <glyph glyph-name="pic" unicode="&#58938;" d="M369.408 416.64c-61.248 0-109.952 48.704-109.952 109.952s48.64 109.952 109.952 109.952c61.248 0 109.952-48.64 109.952-109.952 0-61.248-48.704-109.952-109.952-109.952z m0 157.056a46.272 46.272 0 0 1-47.104-47.104c0-26.688 20.416-47.104 47.104-47.104a46.272 46.272 0 0 1 47.104 47.104 46.272 46.272 0 0 1-47.104 47.104zM888.832 793.6c18.112 0 32.768-14.656 32.768-32.768v-753.664a32.704 32.704 0 0 0-32.768-32.768H135.168a32.704 32.704 0 0 0-32.768 32.768V760.832c0 18.112 14.656 32.768 32.768 32.768z m-42.624-70.4H172.8v-673.408h673.472v198.976l-123.456 130.176a32.256 32.256 0 0 1-45.504 0l-157.056-166.4c-18.88-17.28-44.032-28.288-69.12-28.288-25.152 0-50.24 10.944-69.12 29.824l-37.696 39.232a32.256 32.256 0 0 1-45.568 0l-48.64-51.84a31.808 31.808 0 0 0-43.968-1.536c-12.608 11.008-12.608 31.36-1.6 43.968l48.64 51.84a92.8 92.8 0 0 0 67.584 29.824c25.152 0 50.24-11.008 69.12-29.824l37.696-39.296a32.256 32.256 0 0 1 45.504 0l157.056 164.928c17.28 18.88 42.432 29.824 69.12 29.824 26.688 0 50.24-10.944 69.12-29.824L846.208 339.20000000000005v384z"  horiz-adv-x="1024" />

    
    <glyph glyph-name="shixiaox" unicode="&#58880;" d="M1023.99808 384c0 281.598944-230.399136 511.99808-511.99808 511.99808a506.430101 506.430101 0 0 1-358.398656-147.199448l-2.111992-2.111992-2.175992-2.175992L147.201368 742.398656A506.430101 506.430101 0 0 1 0.00192 384c0-281.598944 230.399136-511.99808 511.99808-511.99808a506.430101 506.430101 0 0 1 358.398656 147.199448l2.111992 2.111992 2.175992 2.175992 2.111992 2.111992A506.430101 506.430101 0 0 1 1023.99808 384z m-85.31168 0c0-102.399616-36.287864-196.287264-95.99964-268.798992L243.201008 714.68676a421.886418 421.886418 0 0 0 268.798992 95.99964c234.68712 0 426.6864-191.99928 426.6864-426.6864zM85.3136 384c0 102.399616 36.287864 196.287264 95.99964 268.798992l599.485752-599.485752a421.886418 421.886418 0 0 0-268.798992-95.99964c-234.68712 0-426.6864 191.99928-426.6864 426.6864z"  horiz-adv-x="1024" />

    
    <glyph glyph-name="top" unicode="&#58881;" d="M945.198545 783.872H78.708364c-21.736727 0-39.330909 16.290909-39.330909 36.398545 0 20.014545 17.594182 36.305455 39.330909 36.305455h866.490181c21.829818 0 39.424-16.290909 39.424-36.305455 0-20.061091-17.594182-36.398545-39.424-36.398545m-47.290181-412.765091l-353.745455 328.657455a41.099636 41.099636 0 0 1-28.253091 10.705454c-1.396364 0.093091-2.56 0.744727-3.909818 0.744727a40.820364 40.820364 0 0 1-16.011636-3.258181 38.865455 38.865455 0 0 1-13.777455-8.145455l-319.115636-294.167273a34.397091 34.397091 0 0 1-0.046546-51.339636c7.68-7.168 17.780364-10.705455 27.880728-10.705455a40.913455 40.913455 0 0 1 27.834181 10.612364l253.812364 233.937455v-640.465455c0-20.014545 17.687273-36.305455 39.424-36.305454 21.736727 0 39.330909 16.290909 39.330909 36.305454V590.010182l290.722909-270.103273c7.68-7.121455 17.873455-10.705455 27.927273-10.705454 10.053818 0 20.014545 3.537455 27.787636 10.565818a34.397091 34.397091 0 0 1 0.139637 51.386182"  horiz-adv-x="1024" />

    
    <glyph glyph-name="lishibaojia" unicode="&#58882;" d="M482.742857 215.771429v43.885714H394.971429c-14.628571 0-29.257143 14.628571-29.257143 29.257143s14.628571 29.257143 29.257143 29.257143h87.771428v51.2H394.971429c-14.628571 0-29.257143 14.628571-29.257143 29.257142s14.628571 29.257143 29.257143 29.257143h73.142857L373.028571 515.657143c-7.314286 7.314286-7.314286 21.942857 0 36.571428 7.314286 7.314286 14.628571 7.314286 21.942858 7.314286 7.314286 0 14.628571 0 21.942857-7.314286L512 464.457143l95.085714 87.771428c7.314286 7.314286 14.628571 7.314286 21.942857 7.314286 7.314286 0 14.628571 0 21.942858-7.314286 0-7.314286 7.314286-7.314286 7.314285-14.628571s0-14.628571-7.314285-21.942857L555.885714 427.885714h73.142857c14.628571 0 29.257143-14.628571 29.257143-29.257143s-14.628571-29.257143-29.257143-29.257142H541.257143v-51.2h87.771428c14.628571 0 29.257143-14.628571 29.257143-29.257143s-14.628571-29.257143-29.257143-29.257143H541.257143v-43.885714c0-14.628571-14.628571-29.257143-29.257143-29.257143s-29.257143 14.628571-29.257143 29.257143zM512-69.485714C263.314286-69.485714 58.514286 135.314286 58.514286 384 58.514286 632.685714 263.314286 837.485714 512 837.485714s453.485714-204.8 453.485714-453.485714c0-248.685714-204.8-453.485714-453.485714-453.485714zM512 800.914286C277.942857 800.914286 87.771429 618.057143 87.771429 384s190.171429-416.914286 424.228571-416.914286c234.057143 0 424.228571 190.171429 424.228571 416.914286S746.057143 800.914286 512 800.914286z"  horiz-adv-x="1024" />

    
    <glyph glyph-name="shangpinduibi" unicode="&#58883;" d="M512-69.485714C263.314286-69.485714 58.514286 135.314286 58.514286 384 58.514286 632.685714 263.314286 837.485714 512 837.485714c248.685714 0 453.485714-204.8 453.485714-453.485714 0-248.685714-204.8-453.485714-453.485714-453.485714zM512 800.914286C277.942857 800.914286 87.771429 618.057143 87.771429 384s190.171429-416.914286 416.914285-416.914286c234.057143 0 416.914286 190.171429 416.914286 416.914286 7.314286 234.057143-182.857143 416.914286-409.6 416.914286zM307.2 471.771429l124.342857 95.085714c7.314286 7.314286 29.257143 0 43.885714-7.314286 7.314286-14.628571 7.314286-36.571429-7.314285-43.885714l-51.2-36.571429h277.942857c21.942857 0 36.571429-14.628571 36.571428-36.571428s-14.628571-29.257143-29.257142-29.257143H321.828571c-14.628571 0-21.942857 7.314286-29.257142 21.942857 0 14.628571 0 21.942857 14.628571 36.571429z m409.6-175.542858L592.457143 201.142857c-7.314286 0-14.628571-7.314286-21.942857-7.314286-7.314286 0-21.942857 0-21.942857 14.628572-7.314286 14.628571-7.314286 36.571429 7.314285 43.885714l51.2 36.571429H321.828571c-14.628571 0-29.257143 14.628571-29.257142 29.257143s14.628571 29.257143 29.257142 29.257142h373.028572c14.628571 0 21.942857-7.314286 29.257143-21.942857 7.314286-7.314286 0-21.942857-7.314286-29.257143z"  horiz-adv-x="1024" />

    
    <glyph glyph-name="lishichengjiaojia" unicode="&#58884;" d="M512-69.485714C263.314286-69.485714 58.514286 135.314286 58.514286 384S263.314286 837.485714 512 837.485714s453.485714-204.8 453.485714-453.485714c0-248.685714-204.8-453.485714-453.485714-453.485714zM512 800.914286C277.942857 800.914286 95.085714 618.057143 95.085714 384s190.171429-416.914286 416.914286-416.914286c234.057143 0 416.914286 190.171429 416.914286 416.914286 0 234.057143-182.857143 416.914286-416.914286 416.914286zM380.342857 493.714286l146.285714 146.285714c7.314286 7.314286 21.942857 7.314286 29.257143 0 7.314286-7.314286 7.314286-21.942857 0-29.257143l-146.285714-146.285714c-7.314286-7.314286-21.942857-7.314286-29.257143 0-7.314286 7.314286-7.314286 21.942857 0 29.257143z m146.285714-146.285715l-226.742857-226.742857-51.2 51.2 226.742857 226.742857-51.2 43.885715 146.285715 146.285714 146.285714-146.285714-146.285714-146.285715-43.885715 51.2z m241.371429 51.2l-146.285714-146.285714c-7.314286-7.314286-21.942857-7.314286-36.571429 0-7.314286 7.314286-7.314286 21.942857 0 29.257143l146.285714 146.285714c7.314286 7.314286 21.942857 7.314286 29.257143 0 14.628571-7.314286 14.628571-21.942857 7.314286-29.257143z"  horiz-adv-x="1024" />

    


  </font>
</defs>
</svg>
